{"title":"Ganvesh 2016 Marathi Untouched DesiScr x264 AAC ESubs [TMB]","uid":15630693,"size":502496757,"categoryP":"video","categoryS":"movies","magnet":"?xt=urn:btih:2b9b30505e8f4057149cf969750dfc496daf7855&amp;dn=Ganvesh+2016+Marathi+Untouched+DesiScr+x264+AAC+ESubs+%5BTMB%5D&amp;tr=udp%3A%2F%2Ftracker.leechers-paradise.org%3A6969&amp;tr=udp%3A%2F%2Fzer0day.ch%3A1337&amp;tr=udp%3A%2F%2Fopen.demonii.com%3A1337&amp;tr=udp%3A%2F%2Ftracker.coppersurfer.tk%3A6969&amp;tr=udp%3A%2F%2Fexodus.desync.com%3A6969","seeders":8,"leechers":2,"uploader":"Manoj_vb","files":1,"time":1471955355,"description":"http://i1306.photobucket.com/albums/s570/zyx55e/44_zpsc46e809d.gif\r\n \nhttps://postimg.org/image/hjptftnuj/\r\n \nhttps://postimg.org/image/f290bfxmj/\r\n \nhttps://postimg.org/image/h83b5y12z/\r\n \nhttps://postimg.org/image/69s1nrchn/\r\n \nhttps://postimg.org/image/vtubu6xvf/\r\n \nhttps://postimg.org/image/orwe7zu9n/\r\n \nhttps://postimg.org/image/trtufxzwb/\r\n \nhttps://postimg.org/image/ifmav9xiz/\r\n \nhttps://postimg.org/image/xcurwaarf/\r\n \nhttps://postimg.org/image/8xmjv8buj/\r\n \nhttps://postimg.org/image/dxk036hh7/\r\n \nhttps://postimg.org/image/s59ortu63/\r\n\r\nInfo -\r\nRelease Date 24 June 2016 \r\n\r\nCast \r\nKishor Kadam,\r\nMukta Barve,\r\nDilip Prabhavalkar,\r\nSmita Tambe,\r\nGuru Thakur,\r\nNagesh Bhosale,\r\nSuhas Palshikar,\r\nGanesh Yadav,\r\nSharad Ponkshe,\r\nTanmay Mande \r\n\r\nDirector Atul Jagdale \r\nStory By  Tejas Ghadge \r\nMusic Composer  Nihar Shembekar \r\nProducer  Vijayate Entertainment \r\n \nhttp://i1306.photobucket.com/albums/s570/zyx55e/oie_11162011MOJeDGQI_zpsc25b2b81.gif\r\nGeneral\r\nComplete name               : Ganvesh 2016 Untouched DesiScr x264 AAC ESubs [TMB].mp4\r\nFormat                      : MPEG-4\r\nFormat profile              : Base Media\r\nFile size                   : 479 MiB\r\nDuration                    : 1 h 51 min\r\nOverall bit rate mode       : Variable\r\nOverall bit rate            : 598 kb/s\r\n\r\nVideo\r\nFormat                      : AVC\r\nFormat/Info                 : Advanced Video Codec\r\nFormat profile              :   \r\nFormat settings, CABAC      : Yes\r\nFormat settings, ReFrames   : 3 frames\r\nCodec ID                    : avc1\r\nCodec ID/Info               : Advanced Video Coding\r\nDuration                    : 1 h 51 min\r\nBit rate                    : 468 kb/s\r\nWidth                       : 640 pixels\r\nHeight                      : 480 pixels\r\nDisplay aspect ratio        : 4:3\r\nFrame rate mode             : Variable\r\nFrame rate                  : 24.975 (25000/1001) FPS\r\nMinimum frame rate          : 24.972 FPS\r\nMaximum frame rate          : 24.986 FPS\r\nColor space                 : YUV\r\nChroma subsampling          : 4:2:0\r\nBit depth                   : 8 bits\r\nScan type                   : Progressive\r\nBits/(Pixel*Frame)          : 0.061\r\nStream size                 : 375 MiB (78%)\r\n\r\nAudio\r\nFormat                      : AAC\r\nFormat/Info                 : Advanced Audio Codec\r\nFormat profile              : LC\r\nCodec ID                    : 40\r\nDuration                    : 1 h 51 min\r\nBit rate mode               : Variable\r\nBit rate                    : 126 kb/s\r\nChannel(s)                  : 2 channels\r\nChannel positions           : Front: L R\r\nSampling rate               : 44.1 kHz\r\nFrame rate                  : 43.066 FPS (1024 spf)\r\nCompression mode            : Lossy\r\nStream size                 : 101 MiB (21%)\r\n\r\nUploaded &amp; Shared by Saket\r\n\r\nSeeding 24x7... Extreme Seeding...\r\n\r\n \nhttp://i1306.photobucket.com/albums/s570/zyx55e/oie_1117625zVIGKvnK_zpsc8b6e055.gif","torrent":{"xt":"urn:btih:2b9b30505e8f4057149cf969750dfc496daf7855","amp;dn":"Ganvesh+2016+Marathi+Untouched+DesiScr+x264+AAC+ESubs+%5BTMB%5D","amp;tr":["udp%3A%2F%2Ftracker.leechers-paradise.org%3A6969","udp%3A%2F%2Fzer0day.ch%3A1337","udp%3A%2F%2Fopen.demonii.com%3A1337","udp%3A%2F%2Ftracker.coppersurfer.tk%3A6969","udp%3A%2F%2Fexodus.desync.com%3A6969"],"infoHash":"2b9b30505e8f4057149cf969750dfc496daf7855","infoHashBuffer":{"type":"Buffer","data":[43,155,48,80,94,143,64,87,20,156,249,105,117,13,252,73,109,175,120,85]},"announce":[],"urlList":[]}}